<?xml version="1.0" encoding="utf-8"?>
<!-- Generator: Adobe Illustrator 21.0.0, SVG Export Plug-In . SVG Version: 6.00 Build 0)  -->
<svg version="1.1" id="Layer_2" xmlns="http://www.w3.org/2000/svg" xmlns:xlink="http://www.w3.org/1999/xlink" x="0px" y="0px"
	 viewBox="0 0 1400 1400" style="enable-background:new 0 0 1400 1400;" xml:space="preserve">
<style type="text/css">
	.st0{fill:url(#SVGID_1_);}
	.st1{fill:#157E80;}
	.st2{fill:#24A3A3;}
	.st3{fill:url(#SVGID_2_);}
	.st4{fill:#0E262D;}
	.st5{fill:#071E1A;}
	.st6{fill:#3B5453;}
	.st7{fill:#4B6361;}
	.st8{opacity:0.2;fill:#FFD239;}
	.st9{fill:#0F1D3E;}
	.st10{fill:#384E5E;}
	.st11{fill:#506877;}
	.st12{fill:#2A3E3E;}
	.st13{fill:#377992;}
	.st14{fill:#2C6577;}
	.st15{fill:#5295AA;}
	.st16{fill:#202214;}
	.st17{fill:#193C44;}
	.st18{fill:#2E301A;}
	.st19{fill:#0F352F;}
	.st20{opacity:0.3;fill:#FFD239;}
	.st21{fill:#69462F;}
	.st22{fill:#7C543E;}
	.st23{fill:#9B722F;}
	.st24{fill:#11284D;}
	.st25{fill:#2B6977;}
	.st26{fill:#134662;}
	.st27{fill:#0D4056;}
	.st28{fill:#176356;}
	.st29{fill:#111A30;}
	.st30{fill:#2A917F;}
	.st31{fill:#1B5950;}
	.st32{fill:#FFAD00;}
	.st33{fill:#061C32;}
	.st34{fill:#EA9B1C;}
	.st35{fill:#FFC152;}
	.st36{fill:#FFCE43;}
	.st37{fill:#71C6CD;}
	.st38{fill:#26100D;}
	.st39{fill:#3B1C17;}
	.st40{fill:#FDC300;}
	.st41{fill:#FA7A07;}
	.st42{fill:#FFD150;}
	.st43{fill:#F4CE62;}
	.st44{fill:#FFEC66;}
	.st45{fill:#FF8A50;}
	.st46{fill:#F3701E;}
	.st47{fill:#CE5917;}
	.st48{fill:#FCAA86;}
	.st49{fill:#47B23F;}
	.st50{fill:#2E9329;}
	.st51{fill:#237C1C;}
	.st52{fill:#69C961;}
	.st53{fill:#326B9E;}
	.st54{fill:#0F406D;}
	.st55{fill:#174D87;}
	.st56{fill:#417DAA;}
	.st57{fill:#155945;}
	.st58{fill:#564E1F;}
	.st59{fill:#FFD239;}
	.st60{fill:#F88414;}
</style>
<rect class="st9" width="1400" height="543.3"/>
<polygon class="st10" points="0,396.8 327.3,257.7 460.9,339.4 558.5,319.1 905.2,466.9 1111.6,362.3 1239.1,410.3 1400,319.1 
	1400,721.3 0,721.3 "/>
<g>
	<polygon class="st11" points="1111.6,362.3 1062.1,387.4 1062.1,387.4 1109.4,386 1245.4,459 1195.4,409 1239.1,410.3 	"/>
	<polygon class="st11" points="1400,354.7 1400,319.1 1380.1,330.4 	"/>
	<polygon class="st11" points="905.2,466.9 558.5,319.1 460.9,339.4 327.3,257.7 210.6,307.3 322.4,281 363.4,366 363.4,323.5 
		591.4,552 459.4,367 820.4,577 495.4,361 555.4,342 623.4,404 596.4,361 1085.3,554 	"/>
</g>
<rect y="949.1" class="st12" width="1400" height="450.9"/>
<rect y="797.6" class="st13" width="1400" height="151.5"/>
<path class="st14" d="M1400,797.6H0V828c45.9,0.8,677,12.5,694.4,14.7c18,2.3,1.6,9.2-117.7,11.3c-119.2,2.1-208.3,0.2-206.8,5.8
	S332.4,881,541.4,890s412-2.4,447,5.3S818.8,915.2,789.9,912s-94.6,24.7,82.4,25.4c45.9,0.2,99.4,4.9,153.5,11.7H1400V797.6z"/>
<path class="st15" d="M10.8,840.1c0,0,257.9-0.7,262.5,0c4.7,0.7,21.3,2.1-30.7,2.9c-52,0.8-238.7,2.6-238.7,2.6L10.8,840.1z"/>
<path class="st15" d="M23.9,854.4c0,0,496.4-0.7,505.4,0c9,0.7,41.1,2.1-59,2.9s-459.4,2.6-459.4,2.6L23.9,854.4z"/>
<path class="st15" d="M1276.1,843.2c0,0-496.4,0.7-505.4,0c-9-0.7-41.1-2.1,59-2.9c100.1-0.8,459.4-2.6,459.4-2.6L1276.1,843.2z"/>
<path class="st15" d="M1382.8,895c0,0-236.8,0.7-241.1,0c-4.3-0.7-19.6-2.1,28.2-2.9c47.8-0.8,219.2-2.6,219.2-2.6L1382.8,895z"/>
<path class="st15" d="M787.2,870.5c-33.2,0.4-170,1.8-211.9,2.5c-47.8,0.8-32.5,2.2-28.2,2.9c4.1,0.7,223.3,0.1,240.1,0
	c0.7,0,1.3-0.2,1.8-0.7C790.9,873.6,789.7,870.5,787.2,870.5z"/>
<path class="st15" d="M973,906.2c-33.2,0.4-170,1.8-211.9,2.5c-47.8,0.8-32.5,2.2-28.2,2.9c4.1,0.7,223.3,0.1,240.1,0
	c0.7,0,1.3-0.2,1.8-0.7C976.7,909.3,975.5,906.2,973,906.2z"/>
<path class="st15" d="M4.2,895.1c0,0,108.8-0.3,110.8,0c2,0.3,9,1-12.9,1.4c-21.9,0.4-100.7,1.3-100.7,1.3L4.2,895.1z"/>
<path class="st16" d="M1372.4,821c0,0,0,34-20.5,47.5s-37.5,9-37.5,9l8.4-65.3h-37.4c0,0,3.5,41.8-5.5,80.3s-23,88.5-23,88.5l42,25
	l24-4.5l-6-100c0,0,24.5,6,47-26s23.5-56.5,23.5-56.5L1372.4,821z"/>
<path class="st5" d="M1295.4,978.3c0,0,9.7-13,22-13.3c12.3-0.3,21,3.7,21,3.7s0.7-15.3,12-23.7c11.3-8.3,26.7-7.7,26.7-7.7
	s5.3-20.7,23-16.3v114.7c0,0-50.8,5.1-69.5-2.6C1311.7,1025.3,1295.4,978.3,1295.4,978.3z"/>
<path class="st5" d="M383.2,875.3c0,0,32.8-29.2,74.3-19.1s38.2,46,38.2,46s26.6-6.7,43.1,10.1c16.5,16.8,10.8,38.3,10.8,38.3
	s15.7,3,19.1,21.6c3.4,18.7-28.1,45.6-80.9,41.1s-159.5-9.3-159.5-9.3L383.2,875.3z"/>
<path class="st17" d="M1.4,605.3c0,0,92.3-30,143.2-18s94.8,30,130.8,18s140-36.9,248-8.4c108,28.4,184.6,26.4,250.3,28.4
	s89.7-37.1,175.7-41.6s117.1-20.4,162.6-42.4s158.5-28,195-16s93.1,6,93.1,6l0,266.3H0L1.4,605.3z"/>
<path class="st4" d="M1400,555.3c0,0-56.6,6-93.1-6c-36.5-12-149.5-6-195,16c-20.6,10-38.2,18.7-59.4,25.7c8.8,2,17.8,4.3,23.5,6.3
	c13.3,4.7,69.3,15.3,69.3,15.3s-49.3-1.3-62.7,0c-13.3,1.3-30.7-2.7-54.7-8.7c-4.5-1.1-10.1-2-16.3-2.8c-17.3,3.1-37.6,5.3-62.4,6.6
	c-86,4.4-110,43.6-175.7,41.6c-34.5-1.1-72.1-1-115.7-4.9c23.5,11.9,93.4,28.2,93.4,28.2s-44,0-51.3-4.7c-7.3-4.7-26.7-6.7-62.7-16
	c-12.3-3.2-25.4-8.8-37.4-14.8c-23.7-3.9-49.1-9.1-76.6-16.3c-100.9-26.6-198.3-6.6-240,5.9c3.7,2.8,7.3,5.3,8.7,5.8
	c3.3,1.3,25.3,22.7,25.3,22.7l20,12.7c0,0-12-0.7-24-4.7s-30.7-12-43.3-12c-8.7,0-25.9-11.7-35.8-18.9
	c-26.8-3.1-56.8-13.3-89.7-21.1c-50.8-12-143.2,18-143.2,18L0.1,821.6H1400L1400,555.3z"/>
<path class="st16" d="M100.7,797c0,0-17,29-30.7,38.7C56.4,845.3,59.7,846,39,851s-22.9,0-22.9,0l-3.7-50L0,800.3v179h28.4
	c0,0-17.7-96.7-5.3-102c12.3-5.3,49.7-18.7,71.3-47.7s23.3-42.3,23.3-42.3L100.7,797z"/>
<path class="st18" d="M23,877.3c12.3-5.3,49.7-18.7,71.3-47.7c4.5-6.1,8.2-11.4,11.1-16.1c-1.3,0.3-7.9,1.8-10.8,7.1
	c-3.2,5.8-19.7,24.3-34.2,31.8s-22.2,13.5-31,15.8c-8.8,2.3-13.8,2.7-17.7,10.5c-3.1,6.3,1.5,73.9,3.4,100.5h13.1
	C28.4,979.3,10.7,882.7,23,877.3z"/>
<path class="st5" d="M0,955c0,0,29.5-23.1,61-5.9c31.5,17.2,18.5,69.3,18.5,69.3l80.9,22.6l-75.7,88L0,1129.1V955z"/>
<g>
	<path class="st19" d="M1400,599.9c-19.1-4.2-36.7-6.3-36.7-6.3s-3.3-43.5-10-56c-11.6-21.6-52-50-93-31c-41,19-37.9,60.1-57,59
		c-19.1-1.1-67.2-10-76.1,15s-25.9,32-40.9,35s-59,6-59,41s-20,101,37,117c57,16,73.8,4,79.9,27s6.1,45,39.1,54s115,18.2,134-4.4
		s20-25.6,50-15.6c10.9,3.6,22.3,4.6,32.7,3.1V599.9z"/>
	<path class="st5" d="M1400,837.8V599.9c-19.1-4.2-36.7-6.3-36.7-6.3s-3.3-43.5-10-56c-4.4-8.2-12.9-17.4-24.1-24.6
		c-8.5,0.4-16.8,1.8-24.4,4.6c-43.5,16.1-21.8,55.1-63.4,70.1c-41.6,15-64.8-32.9-87.7-0.7s-93,84.7-68.4,111.7s21.6,37.5,27.6,49.5
		c6,12,78.2,1.5,99.1,24c20.9,22.5-0.8,42,27.3,52.5c28.1,10.5,38.6,18,52.1,6c13.5-12,41.9-26.8,57.7-21.6c6.8,2.2,12.9,14.4,23,27
		C1381.4,838.5,1391.1,839.1,1400,837.8z"/>
</g>
<path class="st6" d="M1148.5,1119.5c-47.7-11-76.2,6.9-115.2-35.8c-39-42.7-223.5-58.3-223.5-58.3s-147-13.4-175.5-3
	c-28.5,10.4,90.6,34.3-7.5,35.6c-98.1,1.3-259.2,33.3-246.6,50.2c12.6,16.9-122.4,65.1-122.4,65.1l-30,79l109.5,112.5
	c0,0,66,13.8,160.5,13.8c65.2,0,38.3,8.5,44.9,21.5h331c7.5-26.2,33.9-38.6,100.5-42.7c81.6-5,214.7,0.1,255.4-52.7
	C1270.3,1251.8,1196.2,1130.5,1148.5,1119.5z"/>
<path class="st12" d="M896.7,1244.8c0,0,12.3-0.6,15.3,2s-2.8,7-15.3,5s-24.3,0.5-24.3-2.3S891.5,1244.8,896.7,1244.8z"/>
<path class="st12" d="M619.4,1194.4c0,0-12.1-2.1-14.4-5.3s4.2-6.3,16-1.6s23.8,4.9,23.2,7.5
	C643.5,1197.8,624.5,1195.5,619.4,1194.4z"/>
<path class="st20" d="M834.5,1167.3c0,0-71.4,2-96.9-1c-25.5-3-27.5,2.7-56,9.2c-28.5,6.5-35.5-2-57.8,8.5
	c-22.3,10.5-48.8,32-51.2,40.3c-2.3,8.3,7.9,8.2,7.4,18.3s-40.8,13.9-16,19.6c24.8,5.7,64.6,19.8,90.7,19
	c26.2-0.8,55.9-10.8,89-11.5s67.9,13.8,98.6,1.2c30.7-12.6,64.5-18.9,49.7-27.2c-14.8-8.3-39.9-7.5-28.3-20.3s16.7-8.7,12.9-15.9
	c-11.1-21.1-27.3-14.3-31.5-19.1C835.4,1177.1,865.2,1166.8,834.5,1167.3z"/>
<g>
	<path class="st21" d="M683.1,1200l65.7-15.7l-3.7-11L680,1182C680,1182,664.4,1194.4,683.1,1200z"/>
	<path class="st22" d="M745.1,1173.3L680,1182c0,0-4.5,3.6-5.8,7.8c1.5,0.1,20.1-2.5,26-4c5.9-1.5,11.6,0.2,11.6,0.2l35-7.6
		L745.1,1173.3z"/>
	<path class="st23" d="M688,1187c-0.8-3.1-8-5-8-5s-15.6,12.3,3.1,18C691.7,1193.3,688,1187,688,1187z"/>
</g>
<g>
	<path class="st21" d="M791.2,1199.9l-66.9-9.8l2.7-11.3l65.7,2.9C792.7,1181.7,809.3,1192.6,791.2,1199.9z"/>
	<path class="st22" d="M727,1178.8l65.7,2.9c0,0,4.8,3.2,6.4,7.2c-1.5,0.3-20.3-0.7-26.2-1.7c-6-1-11.5,1.3-11.5,1.3l-35.6-4.4
		L727,1178.8z"/>
	<path class="st23" d="M785.2,1187.4c0.5-3.2,7.5-5.7,7.5-5.7s16.6,10.9-1.5,18.2C782,1193.9,785.2,1187.4,785.2,1187.4z"/>
</g>
<polygon class="st44" points="104.9,224 116.4,221.8 104.9,219.5 102.7,208.1 100.5,219.5 89,221.8 100.5,224 102.7,235.5 "/>
<polygon class="st44" points="1271.8,210.3 1283.3,208.1 1271.8,205.8 1269.6,194.3 1267.4,205.8 1255.9,208.1 1267.4,210.3 
	1269.6,221.8 "/>
<polygon class="st44" points="805.3,356.9 816.8,354.7 805.3,352.4 803.1,341 800.9,352.4 789.4,354.7 800.9,356.9 803.1,368.4 "/>
<polygon class="st44" points="323.9,58.1 335.3,55.9 323.9,53.6 321.6,42.2 319.4,53.6 307.9,55.9 319.4,58.1 321.6,69.6 "/>
<polygon class="st44" points="147.5,84.1 151.9,83.3 147.5,82.4 146.7,78 145.8,82.4 141.4,83.3 145.8,84.1 146.7,88.5 "/>
<polygon class="st44" points="1024.7,70.4 1029.2,69.6 1024.7,68.7 1023.9,64.3 1023,68.7 1018.6,69.6 1023,70.4 1023.9,74.8 "/>
<polygon class="st44" points="569.8,236.3 574.2,235.5 569.8,234.6 568.9,230.2 568.1,234.6 563.7,235.5 568.1,236.3 568.9,240.7 
	"/>
<polygon class="st44" points="1094.6,203.6 1099.1,202.8 1094.6,201.9 1093.8,197.5 1092.9,201.9 1088.5,202.8 1092.9,203.6 
	1093.8,208.1 "/>
<polygon class="st44" points="253,120.5 257.4,119.7 253,118.8 252.1,114.4 251.2,118.8 246.8,119.7 251.2,120.5 252.1,124.9 "/>
<polygon class="st44" points="740.8,203.6 745.2,202.8 740.8,201.9 739.9,197.5 739.1,201.9 734.6,202.8 739.1,203.6 739.9,208.1 
	"/>
<polygon class="st44" points="1154.6,320 1159,319.1 1154.6,318.3 1153.7,313.8 1152.9,318.3 1148.4,319.1 1152.9,320 1153.7,324.4 
	"/>
<polygon class="st44" points="182.2,187.2 186.6,186.4 182.2,185.5 181.4,181.1 180.5,185.5 176.1,186.4 180.5,187.2 181.4,191.6 
	"/>
<polygon class="st44" points="22.2,208.9 26.6,208.1 22.2,207.2 21.4,202.8 20.5,207.2 16.1,208.1 20.5,208.9 21.4,213.3 "/>
<polygon class="st44" points="960.1,272.5 964.6,271.7 960.1,270.8 959.3,266.4 958.4,270.8 954,271.7 958.4,272.5 959.3,276.9 "/>
<polygon class="st44" points="1323,32.7 1327.4,31.8 1323,31 1322.1,26.6 1321.3,31 1316.8,31.8 1321.3,32.7 1322.1,37.1 "/>
<polygon class="st44" points="1184.2,89.4 1188.6,88.5 1184.2,87.7 1183.4,83.3 1182.5,87.7 1178.1,88.5 1182.5,89.4 1183.4,93.8 
	"/>
<polygon class="st44" points="1375.7,110 1380.1,109.1 1375.7,108.3 1374.8,103.9 1374,108.3 1369.5,109.1 1374,110 1374.8,114.4 
	"/>
<polygon class="st44" points="1335.2,272.5 1339.6,271.7 1335.2,270.8 1334.3,266.4 1333.4,270.8 1329,271.7 1333.4,272.5 
	1334.3,276.9 "/>
<polygon class="st44" points="389.1,208.9 393.5,208.1 389.1,207.2 388.2,202.8 387.4,207.2 383,208.1 387.4,208.9 388.2,213.3 "/>
<polygon class="st44" points="462.7,65.2 467.1,64.3 462.7,63.4 461.8,59 461,63.4 456.6,64.3 461,65.2 461.8,69.6 "/>
<polygon class="st44" points="947.8,153.9 959.3,151.7 947.8,149.5 945.6,138 943.3,149.5 931.9,151.7 943.3,153.9 945.6,165.4 "/>
<g>
	<polygon class="st45" points="773.7,1028 922.9,750.5 1051.7,1067.5 	"/>
	<polygon class="st46" points="932.2,1030 932.2,1037.3 905.7,1046.7 922,937.3 	"/>
	<path class="st46" d="M1202.6,781.2c0,0-159.1,0-279.7-30.7l128.9,317l297.3-28.5L1202.6,781.2z"/>
	<path class="st47" d="M1202.6,781.2c0,0-159.1,0-279.7-30.7l128.9,317l282.5-27.1c-204.5-3-280.4-98.5-280.4-98.5
		c70.2,51.6,155.8,69.7,155.2,68s-27.4-6.6-101.5-62.5c-74-55.9-155.8-178.8-155.8-178.8s23,8.8,93.8,17
		C1116.5,793.8,1202.6,781.2,1202.6,781.2z"/>
	<polygon class="st16" points="922.9,750.5 888.6,1044.3 905.7,1046.7 	"/>
	<path class="st48" d="M905.7,1046.7c0,0,8.6-15.2,32.5-17.7l-15.4-278.6L905.7,1046.7z"/>
</g>
<path class="st19" d="M1306.9,1095c0,0-1.9-81.2,10.5-81.5c12.3-0.3,30.3,2.5,30.3,2.5s-5.6-22.7,5.7-31s23.5,12,23.5,12
	s5.4-31.8,23.1-27.5V1107c0,0-50.8-17.7-69.5-25.4C1311.7,1073.8,1306.9,1095,1306.9,1095z"/>
<g>
	<polygon class="st49" points="929.2,1276.6 1078.4,999.1 1207.3,1316.1 	"/>
	<polygon class="st50" points="1087.7,1278.7 1087.7,1286 1061.3,1295.4 1077.5,1186 	"/>
	<path class="st50" d="M1400,1103.5l-41.9-73.7c0,0-159.1,0-279.7-30.7l128.9,317l192.7-18.5V1103.5z"/>
	<path class="st51" d="M1400,1281c-137.3-23.5-190.5-90.5-190.5-90.5c70.2,51.6,155.8,69.7,155.2,68c-0.5-1.6-27.4-6.6-101.5-62.5
		c-74-55.9-155.8-178.8-155.8-178.8s23,8.8,93.8,17s156.9-4.4,156.9-4.4s-159.1,0-279.7-30.7l128.9,317l192.7-18.5V1281z"/>
	<polygon class="st16" points="1078.4,999.1 1044.1,1292.9 1061.3,1295.4 	"/>
	<path class="st52" d="M1061.3,1295.4c0,0,8.6-15.2,32.5-17.7l-15.4-278.6L1061.3,1295.4z"/>
</g>
<g>
	<polygon class="st53" points="576.7,1118.1 427.5,840.6 298.6,1157.6 	"/>
	<polygon class="st54" points="418.2,1120.2 418.2,1127.4 444.7,1136.9 428.4,1027.5 	"/>
	<path class="st55" d="M147.8,871.3c0,0,159.1,0,279.7-30.7l-128.9,317L1.4,1129.1L147.8,871.3z"/>
	<path class="st54" d="M147.8,871.3c0,0,159.1,0,279.7-30.7l-128.9,317l-282.5-27.1c204.5-3,280.4-98.5,280.4-98.5
		c-70.2,51.6-155.8,69.7-155.2,68s27.4-6.6,101.5-62.5s155.8-178.8,155.8-178.8s-23,8.8-93.8,17S147.8,871.3,147.8,871.3z"/>
	<polygon class="st16" points="427.5,840.6 461.8,1134.4 444.7,1136.9 	"/>
	<path class="st56" d="M444.7,1136.9c0,0-8.6-15.2-32.5-17.7l15.4-278.6L444.7,1136.9z"/>
</g>
<g>
	<g>
		<circle class="st57" cx="218.5" cy="1239.1" r="86"/>
		<path class="st19" d="M213,1181.2c-36.6-1-68.3,21.7-80.5,54.1c-0.1,1.3-0.1,2.5-0.1,3.8c0,47.5,38.5,86,86,86
			c31.2,0,58.4-16.6,73.5-41.3c1.3-5.4,2-11,2.2-16.8C295.4,1220.9,259.1,1182.5,213,1181.2z"/>
	</g>
	<g>
		<circle class="st57" cx="86" cy="1192.2" r="86"/>
		<path class="st19" d="M80.6,1134.3c-36.6-1-68.3,21.7-80.5,54.1c-0.1,1.3-0.1,2.5-0.1,3.8c0,47.5,38.5,86,86,86
			c31.2,0,58.4-16.6,73.5-41.3c1.3-5.4,2-11,2.2-16.8C163,1174,126.7,1135.6,80.6,1134.3z"/>
	</g>
	<g>
		<circle class="st57" cx="294.2" cy="1314" r="86"/>
		<path class="st19" d="M288.7,1256.1c-36.6-1-68.3,21.7-80.5,54.1c-0.1,1.3-0.1,2.5-0.1,3.8c0,47.5,38.5,86,86,86
			c31.2,0,58.4-16.6,73.5-41.3c1.3-5.4,2-11,2.2-16.8C371.2,1295.8,334.8,1257.4,288.7,1256.1z"/>
	</g>
	<path class="st19" d="M0,1192.2V1400h289l-3.3-23.6c0,0-139.2-34.6-141.2-34.6C142.6,1341.9,0,1192.2,0,1192.2z"/>
	<g>
		<circle class="st57" cx="164.2" cy="1304.1" r="86"/>
		<path class="st19" d="M158.7,1246.2c-36.6-1-68.3,21.7-80.5,54.1c-0.1,1.3-0.1,2.5-0.1,3.8c0,47.5,38.5,86,86,86
			c31.2,0,58.4-16.6,73.5-41.3c1.3-5.4,2-11,2.2-16.8C241.2,1285.9,204.8,1247.5,158.7,1246.2z"/>
	</g>
</g>
<g>
	<g>
		<circle class="st57" cx="1148.5" cy="1287.4" r="99.1"/>
		<path class="st19" d="M1154.8,1220.8c42.1-1.2,78.6,24.9,92.7,62.2c0.1,1.4,0.1,2.9,0.1,4.4c0,54.7-44.3,99.1-99.1,99.1
			c-35.9,0-67.3-19.1-84.7-47.6c-1.5-6.2-2.3-12.7-2.5-19.3C1059.9,1266.5,1101.7,1222.3,1154.8,1220.8z"/>
	</g>
	<g>
		<circle class="st57" cx="1300.9" cy="1233.5" r="99.1"/>
		<path class="st19" d="M1307.2,1166.9c42.1-1.2,78.6,24.9,92.7,62.2c0.1,1.4,0.1,2.9,0.1,4.4c0,54.7-44.3,99.1-99.1,99.1
			c-35.9,0-67.3-19.1-84.7-47.6c-1.5-6.2-2.3-12.7-2.5-19.3C1212.3,1212.5,1254.2,1168.3,1307.2,1166.9z"/>
	</g>
	<path class="st57" d="M1156.8,1400c2.3-8.4,3.6-17.2,3.6-26.4c0-54.7-44.3-99.1-99.1-99.1c-54.7,0-99.1,44.3-99.1,99.1
		c0,9.1,1.3,18,3.6,26.4H1156.8z"/>
	<path class="st19" d="M1156.8,1400c2.3-8.4,3.6-17.2,3.6-26.4c0-1.5,0-2.9-0.1-4.4c-14-37.3-50.5-63.4-92.7-62.2
		c-51.1,1.4-91.8,42.5-93.4,93H1156.8z"/>
	<path class="st19" d="M1400,1400v-166.5c0,0-130.1,136.6-160.2,166.5H1400z"/>
	<path class="st57" d="M1302.6,1400c4.8-11.6,7.5-24.4,7.5-37.7c0-54.7-44.3-99.1-99.1-99.1c-54.7,0-99.1,44.3-99.1,99.1
		c0,13.4,2.7,26.1,7.5,37.7H1302.6z"/>
	<path class="st19" d="M1124.2,1400h178.4c4.8-11.6,7.5-24.4,7.5-37.7c0-1.5,0-2.9-0.1-4.4c-14-37.3-50.5-63.4-92.7-62.2
		c-53.1,1.5-94.9,45.7-93.4,98.8C1123.9,1396.3,1124,1398.2,1124.2,1400z"/>
</g>
<path class="st19" d="M0,472c0,0,72.4,5,81.4,17.5c9,12.5,3,30.5,18,35.5s26,6.5,38,18.2s18,22,7.2,44.1
	c-10.9,22.1-22.2,32.7-1.2,62.7s61,51,62,83s-14,51-30,52s-27-2.6-42,17s-52,14-64,11s-38-18-48-10S0,816.1,0,816.1V472z"/>
<path class="st5" d="M73.4,552c-14.5-12.5-1-24.5-10-42.5c-5.1-10.1-36.7-16.8-63.4-20.6V782c1.4,0.2,2.7,0.2,3.9,0
	c17.5-3,23.5-29.5,26.5-41.5s19-15.5,26-6.5s32.5,4,46.3-22.5c13.8-26.5-14.3-34-14.8-53.1S77.4,637,80.4,626s24,2.5,31.5-24
	S87.9,564.5,73.4,552z"/>
<g>
	<circle class="st44" cx="665" cy="98.6" r="72"/>
	<path class="st58" d="M692.3,32c-23.8,7.3-41.1,29.5-41.1,55.7c0,32.2,26.1,58.3,58.3,58.3c3.6,0,7.2-0.3,10.7-1
		c10.5-12.5,16.9-28.7,16.9-46.3C737,68.5,718.5,42.7,692.3,32z"/>
</g>
<path class="st12" d="M711.1,1065.5c0,0,12.3-0.6,15.3,2s-2.8,7-15.3,5s-24.3,0.5-24.3-2.3S705.9,1065.5,711.1,1065.5z"/>
<path class="st12" d="M1003.1,1080c0,0,12.3-0.6,15.3,2s-2.8,7-15.3,5s-24.3,0.5-24.3-2.3S997.9,1080,1003.1,1080z"/>
<path class="st12" d="M505.6,1180.9c0,0,12.2-0.6,15.2,2s-2.8,7-15.2,5c-12.5-2-24.3,0.5-24.3-2.3S500.4,1180.9,505.6,1180.9z"/>
<path class="st12" d="M942.3,1329.8c0,0,12.3-0.6,15.3,2s-2.8,7-15.3,5s-24.3,0.5-24.3-2.3S937.1,1329.8,942.3,1329.8z"/>
<path class="st12" d="M616.1,1333.6c0,0,12.3-0.6,15.3,2s-2.8,7-15.3,5s-24.3,0.5-24.3-2.3S610.9,1333.6,616.1,1333.6z"/>
<path class="st12" d="M404.5,1299.5c0,0,12.3-0.6,15.3,2s-2.8,7-15.3,5s-24.3,0.5-24.3-2.3S399.3,1299.5,404.5,1299.5z"/>
<g>
	<path class="st21" d="M689.1,1223l59.3-32.5l-6.5-9.7l-60.5,25.7C681.4,1206.5,669.6,1222.5,689.1,1223z"/>
	<path class="st22" d="M741.9,1180.8l-60.5,25.7c0,0-3.4,4.6-3.5,9c1.5-0.3,18.8-7.8,24-10.7c5.3-3,11.2-2.8,11.2-2.8l31.8-16.6
		L741.9,1180.8z"/>
	<path class="st23" d="M690.4,1209.2c-1.6-2.8-9-2.7-9-2.7s-11.8,16,7.8,16.5C695.6,1214.3,690.4,1209.2,690.4,1209.2z"/>
</g>
<g>
	<path class="st21" d="M718.7,1236.4l37-56.6l-10.3-5.5l-41.3,51.1C704.1,1225.5,701.3,1245.1,718.7,1236.4z"/>
	<path class="st22" d="M745.4,1174.4l-41.3,51.1c0,0-0.8,5.7,1.2,9.6c1.2-1,12.9-15.7,16.1-20.8c3.2-5.1,8.6-7.8,8.6-7.8l20.2-29.6
		L745.4,1174.4z"/>
	<path class="st23" d="M713.3,1223.6c-2.7-1.7-9.2,1.9-9.2,1.9s-2.8,19.6,14.6,10.9C720.3,1225.6,713.3,1223.6,713.3,1223.6z"/>
</g>
<g>
	<path class="st21" d="M775.4,1228.4l-43.4-51.8l9.6-6.7l47.1,45.9C788.6,1215.8,793.8,1235,775.4,1228.4z"/>
	<path class="st22" d="M741.6,1169.9l47.1,45.9c0,0,1.5,5.6,0,9.7c-1.3-0.8-14.7-14-18.5-18.7c-3.8-4.7-9.4-6.7-9.4-6.7l-23.6-27
		L741.6,1169.9z"/>
	<path class="st23" d="M779.3,1215.1c2.5-2,9.4,0.8,9.4,0.8s5.1,19.2-13.2,12.6C772.6,1217.9,779.3,1215.1,779.3,1215.1z"/>
</g>
<g>
	<path class="st21" d="M736,1230.8l3.3-67.5l11.5,1.6l3.3,65.6C754.2,1230.6,745,1248.1,736,1230.8z"/>
	<path class="st22" d="M750.9,1165l3.3,65.6c0,0-2.7,5.1-6.6,7.1c-0.4-1.5-1.2-20.3-0.8-26.3c0.4-6-2.4-11.4-2.4-11.4l1-35.8
		L750.9,1165z"/>
	<path class="st23" d="M747.9,1223.7c3.2,0.2,6.4,6.9,6.4,6.9s-9.3,17.6-18.2,0.2C741,1221.2,747.9,1223.7,747.9,1223.7z"/>
</g>
<path class="st59" d="M788.1,1163.3c0,0,0.3,3.4-3.4,9.9c-3.7,6.5-11.3,5.7-6.3,1.1s7-21.4,2-33.1s-17.9-20.3-17.9-20.3
	s1.7,6.3,3.2,14s-10,12-15.4,9.8c-5.4-2.3,2.9-11,2.7-24s-16.9-21.5-16.9-21.5s-2.1,22.8-11.7,39.5c-0.4,0.6-0.7,1.3-1.1,1.9
	c-4.4,2.4-9,2.6-11.8,2.1c-5-1-0.8-21.7-0.8-21.7s-3.2,2-10.5,20.7c-7.4,18.7,3,32.7,3,32.7c2,11.4,12.5,17.9,12.5,17.9
	c9.2-7.1,12.2,4,12.2,4s4.8-5.3,7-4.6c2.2,0.7,3.1,4.7,3.1,4.7s5.3-6.1,9.8-5.6c4.5,0.5,5.1,8,5.1,8s2.5-9.8,5.8-9.5
	s7.8,4.6,7.8,4.6c17.8-0.1,24.9-13.7,26-17.4S788.1,1163.3,788.1,1163.3z"/>
<path class="st60" d="M776.5,1183.9c-3.9,4-13.4,2.1-14-1.2c-0.6-3.3,10.4-9.2,12.9-16.2s0-16,0-16s-2.5,14-8,18.3
	c-5.5,4.3-17.3,5.8-17.2-1.5c0.2-7.3-12.7-15.5-16.7-20.5s2.5-16.3,2.5-16.3s-4,5.2-7.3,12c-3.3,6.8,1.5,21.7,0,25.8
	c-1.5,4.2-12.2,6.3-12.7,2.8s-4.7-7.3-6.7-7.8c-2-0.5-6.3-8.8-6.3-8.8s1.2,7.7,3.3,12.3c2.2,4.7,2.2,8.2,2.3,14
	c0.1,2.4,1.6,5.7,3.4,8.8c1.9,1.7,3.4,2.6,3.4,2.6c9.2-7.1,12.2,4,12.2,4s4.8-5.3,7-4.6c2.2,0.7,3.1,4.7,3.1,4.7s5.3-6.1,9.8-5.6
	c4.5,0.5,5.1,8,5.1,8s2.5-9.8,5.8-9.5s7.8,4.6,7.8,4.6c0.7,0,1.4,0,2.1-0.1C772.6,1189.8,776.5,1183.9,776.5,1183.9z"/>
</svg>
